<svg width="40" height="40" viewBox="0 0 40 40" fill="none" xmlns="http://www.w3.org/2000/svg">
<circle cx="20" cy="20" r="20" fill="#FFBB38"/>
<path d="M20 29C24.4183 29 28 25.4183 28 21C28 16.5817 24.4183 13 20 13C15.5817 13 12 16.5817 12 21C12 25.4183 15.5817 29 20 29Z" stroke="#14181F" stroke-width="1.5" stroke-miterlimit="10" stroke-linecap="round" stroke-linejoin="round"/>
<path d="M17.4697 22.4696C17.1768 22.7625 17.1768 23.2374 17.4697 23.5303C17.7626 23.8232 18.2374 23.8232 18.5303 23.5303L17.4697 22.4696ZM22.5303 19.5303C22.8232 19.2374 22.8232 18.7626 22.5303 18.4697C22.2374 18.1768 21.7625 18.1768 21.4696 18.4697L22.5303 19.5303ZM18.5303 23.5303L22.5303 19.5303L21.4696 18.4697L17.4697 22.4696L18.5303 23.5303Z" fill="#14181F"/>
<path d="M18.5303 18.4697C18.2374 18.1768 17.7626 18.1768 17.4697 18.4697C17.1768 18.7626 17.1768 19.2375 17.4697 19.5304L18.5303 18.4697ZM21.4696 23.5304C21.7625 23.8233 22.2374 23.8233 22.5303 23.5304C22.8232 23.2375 22.8232 22.7626 22.5303 22.4697L21.4696 23.5304ZM17.4697 19.5304L21.4696 23.5304L22.5303 22.4697L18.5303 18.4697L17.4697 19.5304Z" fill="#14181F"/>
<path d="M29 14L27 12" stroke="#14181F" stroke-width="1.5" stroke-linecap="round" stroke-linejoin="round"/>
<path d="M18 10L22 10" stroke="#14181F" stroke-width="1.5" stroke-linecap="round" stroke-linejoin="round"/>
</svg>
