<svg width="33" height="32" viewBox="0 0 33 32" fill="none" xmlns="http://www.w3.org/2000/svg">
<circle cx="16.5" cy="16" r="16" transform="rotate(-180 16.5 16)" fill="#F2F2F2"/>
<path d="M15.5398 11.9583C15.1493 11.5677 14.5161 11.5677 14.1256 11.9583C13.7351 12.3488 13.7351 12.9819 14.1256 13.3725L15.5398 11.9583ZM18.166 15.9987L18.8731 16.7058C19.2636 16.3153 19.2636 15.6821 18.8731 15.2916L18.166 15.9987ZM14.1256 18.6249C13.7351 19.0154 13.7351 19.6486 14.1256 20.0391C14.5161 20.4297 15.1493 20.4297 15.5398 20.0391L14.1256 18.6249ZM14.1256 13.3725L17.4589 16.7058L18.8731 15.2916L15.5398 11.9583L14.1256 13.3725ZM17.4589 15.2916L14.1256 18.6249L15.5398 20.0391L18.8731 16.7058L17.4589 15.2916Z" fill="#14181F"/>
</svg>
