<svg width="33" height="32" viewBox="0 0 33 32" fill="none" xmlns="http://www.w3.org/2000/svg">
<circle cx="16.5" cy="16" r="16" fill="#F2F2F2"/>
<path d="M17.4592 20.0417C17.8498 20.4323 18.4829 20.4323 18.8734 20.0417C19.264 19.6512 19.264 19.0181 18.8734 18.6275L17.4592 20.0417ZM14.833 16.0013L14.1259 15.2942C13.7354 15.6847 13.7354 16.3179 14.1259 16.7084L14.833 16.0013ZM18.8734 13.3751C19.264 12.9846 19.264 12.3514 18.8734 11.9609C18.4829 11.5703 17.8498 11.5703 17.4592 11.9609L18.8734 13.3751ZM18.8734 18.6275L15.5401 15.2942L14.1259 16.7084L17.4592 20.0417L18.8734 18.6275ZM15.5401 16.7084L18.8734 13.3751L17.4592 11.9609L14.1259 15.2942L15.5401 16.7084Z" fill="#14181F"/>
</svg>
